<svg width="50" height="50" xmlns="http://www.w3.org/2000/svg" style="user-select: auto;" class="icon">
 <defs style="user-select: auto;">
  <style style="user-select: auto;" type="text/css"/>
 </defs>
 <g>
  <title>background</title>
  <rect fill="none" id="canvas_background" height="52" width="52" y="-1" x="-1"/>
 </g>
 <g>
  <title>Layer 1</title>
  <ellipse style="user-select: auto;" stroke="null" ry="24.55378" rx="24.55378" id="svg_30" cy="24.655162" cx="24.791499" fill-opacity="null" stroke-opacity="null" stroke-width="null" fill="#1E62A1"/>
  <g style="user-select: auto;" stroke="null" id="svg_29">
   <path style="user-select: auto;" stroke="null" id="svg_1" fill="#FFDBA0" d="m11.1989,12.857211c-1.563166,0 -2.831899,-1.336411 -2.831899,-2.976042s1.274087,-2.976042 2.831899,-2.976042c0.06424,0 0.128479,0 0.198072,0.005615l13.158428,0.943349c0.369378,0.028076 0.658457,0.348141 0.658457,0.741203l0,2.577364c0,0.393062 -0.289079,0.713127 -0.658457,0.741203l-13.158428,0.943349l-0.198072,0z"/>
   <path style="user-select: auto;" stroke="null" id="svg_2" fill="#282F63" d="m11.1989,7.651946c0.04818,0 0.09636,0 0.149893,0.005615l13.153074,0.937734l0,2.577364l-13.158428,0.943349c-0.04818,0.005615 -0.09636,0.005615 -0.149893,0.005615c-1.167021,0 -2.125263,-0.993886 -2.125263,-2.234839c0.005353,-1.246568 0.963595,-2.234839 2.130616,-2.234839m0,-1.488021c-1.953957,0 -3.543889,1.667706 -3.543889,3.717244s1.589932,3.717244 3.543889,3.717244c0.0803,0 0.160599,-0.005615 0.246252,-0.01123l13.153074,-0.937734c0.74411,-0.050537 1.316913,-0.701897 1.316913,-1.482406l0,-2.571749c0,-0.780509 -0.578157,-1.426254 -1.316913,-1.482406l-13.158428,-0.943349c-0.0803,0 -0.160599,-0.005615 -0.240899,-0.005615z"/>
   <path style="user-select: auto;" stroke="null" id="svg_3" fill="#FCC975" d="m24.501867,8.595295l-4.914336,-0.353756c-0.289079,1.111804 -0.562097,2.189917 -0.449678,3.312952l5.364013,-0.381832l0,-2.577364z"/>
   <path style="user-select: auto;" stroke="null" id="svg_4" fill="#FFDBA0" d="m37.804835,12.857211c-0.06424,0 -0.128479,0 -0.198072,-0.005615l-13.158428,-0.943349c-0.369378,-0.028076 -0.658457,-0.348141 -0.658457,-0.741203l0,-2.571749c0,-0.393062 0.289079,-0.713127 0.658457,-0.741203l13.158428,-0.943349c0.06424,-0.005615 0.128479,-0.005615 0.198072,-0.005615c1.563166,0 2.831899,1.336411 2.831899,2.976042c0,0.797355 -0.294432,1.544173 -0.835116,2.10569c-0.529977,0.561517 -1.241967,0.870352 -1.996783,0.870352z"/>
   <path style="user-select: auto;" stroke="null" id="svg_5" fill="#282F63" d="m37.804835,7.651946c1.167021,0 2.125263,0.993886 2.125263,2.234839c0,1.240953 -0.963595,2.234839 -2.125263,2.234839c-0.04818,0 -0.09636,0 -0.149893,-0.005615l-13.158428,-0.943349l0,-2.577364l13.163781,-0.943349l0.144539,0m0,-1.488021c-0.0803,0 -0.160599,0.005615 -0.246252,0.01123l-13.158428,0.943349c-0.74411,0.050537 -1.316913,0.701897 -1.316913,1.482406l0,2.577364c0,0.780509 0.578157,1.426254 1.316913,1.482406l13.163781,0.932119c0.0803,0.005615 0.160599,0.01123 0.246252,0.01123c1.953957,0 3.543889,-1.667706 3.543889,-3.717244s-1.595285,-3.72286 -3.549242,-3.72286z"/>
   <path style="user-select: auto;" stroke="null" id="svg_6" fill="#FCC975" d="m24.501867,8.595295l0,2.577364l5.835104,0.415523c-0.01606,-1.201647 -0.09636,-2.307836 -0.422911,-3.380334l-5.412193,0.387447z"/>
   <path style="user-select: auto;" stroke="null" id="svg_7" fill="#EF765E" d="m24.421568,13.014436c-1.648818,0 -2.987145,-1.403793 -2.987145,-3.133266s1.338327,-3.133266 2.987145,-3.133266s2.987145,1.403793 2.987145,3.133266s-1.338327,3.133266 -2.987145,3.133266z"/>
   <path style="user-select: auto;" stroke="null" id="svg_8" fill="#282F63" d="m24.421568,7.494721c1.258027,0 2.280509,1.072498 2.280509,2.392064s-1.022482,2.392064 -2.280509,2.392064s-2.280509,-1.072498 -2.280509,-2.392064s1.022482,-2.392064 2.280509,-2.392064m0,-1.488021c-2.03961,0 -3.693782,1.740704 -3.693782,3.874469s1.659525,3.874469 3.693782,3.874469s3.693782,-1.740704 3.693782,-3.874469s-1.654172,-3.874469 -3.693782,-3.874469z"/>
   <path style="user-select: auto;" stroke="null" id="svg_9" fill="#E5F1F9" d="m16.182829,44.65032c-1.161668,0 -2.109203,-0.993886 -2.109203,-2.212378l0,-2.942351c0,-1.218493 0.947535,-2.212378 2.109203,-2.212378l16.482831,0c1.161668,0 2.109203,0.993886 2.109203,2.212378l0,2.942351c0,1.218493 -0.947535,2.212378 -2.109203,2.212378l-16.482831,0z"/>
   <path style="user-select: auto;" stroke="null" id="svg_10" fill="#282F63" d="m32.66566,38.024416c0.776229,0 1.402566,0.656975 1.402566,1.471175l0,2.942351c0,0.8142 -0.626337,1.471175 -1.402566,1.471175l-16.482831,0c-0.776229,0 -1.402566,-0.656975 -1.402566,-1.471175l0,-2.942351c0,-0.8142 0.626337,-1.471175 1.402566,-1.471175l16.482831,0m0,-1.482406l-16.482831,0c-1.552459,0 -2.815839,1.325181 -2.815839,2.953581l0,2.942351c0,1.6284 1.26338,2.953581 2.815839,2.953581l16.482831,0c1.552459,0 2.815839,-1.325181 2.815839,-2.953581l0,-2.942351c0,-1.6284 -1.26338,-2.953581 -2.815839,-2.953581z"/>
   <path style="user-select: auto;" stroke="null" id="svg_11" fill="#AAD4E9" d="m31.793071,38.024416l-6.274075,0c-0.267665,1.982156 -0.74411,3.930621 -1.188434,5.884701l6.284782,0c1.140254,-1.532942 1.081368,-3.868854 1.177727,-5.884701z"/>
   <path style="user-select: auto;" stroke="null" id="svg_12" fill="#FFFFFF" d="m15.840217,42.437942l0,-2.942351c0,-0.8142 0.626337,-1.471175 1.402566,-1.471175l-1.059955,0c-0.776229,0 -1.402566,0.656975 -1.402566,1.471175l0,2.942351c0,0.8142 0.626337,1.471175 1.402566,1.471175l1.059955,0c-0.776229,0 -1.402566,-0.656975 -1.402566,-1.471175z"/>
   <path style="user-select: auto;" stroke="null" id="svg_13" fill="#1E62A1" d="m24.421568,45.717202c-2.628474,0 -4.817976,-2.156226 -4.983929,-4.907661l-1.450746,-23.88133c-0.112419,-1.886698 0.503211,-3.683553 1.734471,-5.064886c1.231261,-1.375717 2.901492,-2.139381 4.705557,-2.139381s3.474296,0.758048 4.705557,2.139381c1.231261,1.375717 1.846891,3.178188 1.734471,5.064886l-1.450746,23.88133c-0.171306,2.751435 -2.366162,4.907661 -4.994635,4.907661z"/>
   <path style="user-select: auto;" stroke="null" id="svg_14" fill="#282F63" d="m24.421568,10.476378c3.31905,0 5.94217,2.936735 5.733391,6.412527l-1.450746,23.88133c-0.144539,2.369603 -2.018197,4.21138 -4.282645,4.21138s-4.138106,-1.841777 -4.282645,-4.21138l-1.450746,-23.88133c-0.208779,-3.475792 2.419695,-6.412527 5.733391,-6.412527m0,-1.488021c-1.006422,0 -1.986077,0.213377 -2.896139,0.64013c-0.877942,0.409908 -1.659525,0.993886 -2.323335,1.729473c-0.66381,0.741203 -1.167021,1.594709 -1.498926,2.543673c-0.347965,0.982655 -0.487151,2.021462 -0.422911,3.077115l1.450746,23.88133c0.091006,1.521712 0.72805,2.936735 1.788004,3.981158c1.059955,1.044422 2.446461,1.61717 3.902561,1.61717s2.842606,-0.572748 3.902561,-1.61717c1.059955,-1.044422 1.696998,-2.459446 1.788004,-3.981158l1.450746,-23.88133c0.06424,-1.055652 -0.0803,-2.088844 -0.422911,-3.077115c-0.331905,-0.948964 -0.835116,-1.80247 -1.498926,-2.543673c-0.66381,-0.741203 -1.445393,-1.319566 -2.323335,-1.729473c-0.910062,-0.421138 -1.884364,-0.64013 -2.896139,-0.64013z"/>
   <path style="user-select: auto;" stroke="null" id="svg_15" fill="#3381BC" d="m21.557549,41.876424l-1.450746,-23.88133c-0.208779,-3.470177 2.414341,-6.412527 5.733391,-6.412527c0.979655,0 1.895071,0.258298 2.698067,0.707512c-1.038541,-1.117419 -2.494641,-1.824931 -4.11134,-1.824931c-3.31905,0 -5.94217,2.936735 -5.733391,6.412527l1.450746,23.88133c0.101713,1.690167 1.086721,3.110806 2.467874,3.784626c-0.604924,-0.718742 -0.990362,-1.645246 -1.054601,-2.667207z"/>
   <path style="user-select: auto;" stroke="null" id="svg_16" fill="#FFFFFF" d="m5.834887,31.780343c-1.552459,0 -2.810486,-1.325181 -2.810486,-2.947966l0,-6.625904c0,-1.6284 1.26338,-2.947966 2.810486,-2.947966l37.178715,0c1.552459,0 2.810486,1.325181 2.810486,2.947966l0,6.620289c0,1.6284 -1.26338,2.947966 -2.810486,2.947966l-37.178715,0l0,0.005615z"/>
   <path style="user-select: auto;" stroke="null" id="svg_17" fill="#282F63" d="m43.013602,19.999711c1.161668,0 2.10385,0.98827 2.10385,2.206763l0,6.620289c0,1.218493 -0.942182,2.206763 -2.10385,2.206763l-37.178715,0c-1.161668,0 -2.10385,-0.98827 -2.10385,-2.206763l0,-6.620289c0,-1.218493 0.942182,-2.206763 2.10385,-2.206763l37.178715,0m0,-1.482406l-37.178715,0c-1.94325,0 -3.517122,1.656476 -3.517122,3.689169l0,6.620289c0,2.038308 1.579225,3.689169 3.517122,3.689169l37.178715,0c1.94325,0 3.517122,-1.656476 3.517122,-3.689169l0,-6.620289c0,-2.032693 -1.579225,-3.689169 -3.517122,-3.689169z"/>
   <path style="user-select: auto;" stroke="null" id="svg_18" fill="#E5F1F9" d="m23.554332,50.170034c-0.781583,0 -1.413273,-0.668206 -1.413273,-1.482406l0,-6.97966c0,-0.819815 0.637043,-1.482406 1.413273,-1.482406l1.739825,0c0.781583,0 1.413273,0.668206 1.413273,1.482406l0,6.97966c0,0.819815 -0.637043,1.482406 -1.413273,1.482406l-1.739825,0z"/>
   <path style="user-select: auto;" stroke="null" id="svg_19" fill="#282F63" d="m25.294157,40.966766c0.390791,0 0.706636,0.331295 0.706636,0.741203l0,6.97966c0,0.409908 -0.315845,0.741203 -0.706636,0.741203l-1.739825,0c-0.390791,0 -0.706636,-0.331295 -0.706636,-0.741203l0,-6.97966c0,-0.409908 0.315845,-0.741203 0.706636,-0.741203l1.739825,0m0,-1.482406l-1.739825,0c-1.172374,0 -2.125263,0.999501 -2.125263,2.229224l0,6.974045c0,1.229723 0.952889,2.229224 2.125263,2.229224l1.739825,0c1.172374,0 2.125263,-0.999501 2.125263,-2.229224l0,-6.97966c0,-1.224108 -0.952889,-2.223608 -2.125263,-2.223608z"/>
   <path style="user-select: auto;" stroke="null" id="svg_20" fill="#FFFFFF" d="m23.90765,48.687629l0,-6.97966c0,-0.409908 0.315845,-0.741203 0.706636,-0.741203l-1.059955,0c-0.390791,0 -0.706636,0.331295 -0.706636,0.741203l0,6.97966c0,0.409908 0.315845,0.741203 0.706636,0.741203l1.059955,0c-0.390791,0 -0.706636,-0.331295 -0.706636,-0.741203z"/>
   <path style="user-select: auto;" stroke="null" id="svg_21" fill="#FFFFFF" d="m18.672116,16.136472l11.504256,0"/>
   <path style="user-select: auto;" stroke="null" id="svg_22" fill="#282F63" d="m30.176372,16.877675l-11.504256,0c-0.390791,0 -0.706636,-0.331295 -0.706636,-0.741203s0.315845,-0.741203 0.706636,-0.741203l11.504256,0c0.390791,0 0.706636,0.331295 0.706636,0.741203s-0.315845,0.741203 -0.706636,0.741203z"/>
   <path style="user-select: auto;" stroke="null" id="svg_23" fill="#E5F1F9" d="m8.163575,31.780343c-0.326552,0 -0.610277,-0.235837 -0.690577,-0.567132c-0.428265,-1.864237 -0.642397,-3.790242 -0.642397,-5.716246c0,-1.909159 0.214132,-3.812702 0.63169,-5.665709c0.074946,-0.33691 0.358672,-0.572748 0.690577,-0.572748l32.548105,0c0.326552,0 0.610277,0.235837 0.690577,0.572748c0.417558,1.847392 0.63169,3.756551 0.63169,5.665709c0,1.926004 -0.214132,3.852009 -0.642397,5.716246c-0.074946,0.331295 -0.358672,0.567132 -0.690577,0.567132l-32.526691,0z"/>
   <path style="user-select: auto;" stroke="null" id="svg_24" fill="#282F63" d="m40.69562,19.999711c0.396145,1.746319 0.610277,3.588095 0.610277,5.491639c0,1.920389 -0.219486,3.779011 -0.626337,5.542176l-32.515985,0c-0.401498,-1.763164 -0.626337,-3.621786 -0.626337,-5.542176c0,-1.903544 0.214132,-3.74532 0.610277,-5.491639l32.548105,0m0,-1.482406l-32.548105,0c-0.653103,0 -1.225907,0.471675 -1.3758,1.13988c-0.433618,1.903544 -0.64775,3.868854 -0.64775,5.834165c0,1.982156 0.224839,3.964312 0.66381,5.890316c0.155246,0.668206 0.722696,1.13988 1.3758,1.13988l32.521338,0c0.653103,0 1.225907,-0.471675 1.3758,-1.13988c0.438971,-1.926004 0.66381,-3.902545 0.66381,-5.890316c0,-1.96531 -0.219486,-3.930621 -0.64775,-5.834165c-0.155246,-0.668206 -0.722696,-1.13988 -1.381153,-1.13988z"/>
   <path style="user-select: auto;" stroke="null" id="svg_25" fill="#FFFFFF" d="m8.147516,21.59442l32.548105,0c0.331905,1.471175 0.535331,3.004117 0.594217,4.581981c0.005353,-0.230222 0.01606,-0.454829 0.01606,-0.685051c0,-1.903544 -0.214132,-3.74532 -0.610277,-5.491639l-32.548105,0c-0.396145,1.746319 -0.610277,3.588095 -0.610277,5.491639c0,0.230222 0.010707,0.454829 0.01606,0.685051c0.058886,-1.577864 0.262312,-3.110806 0.594217,-4.581981z"/>
   <path style="user-select: auto;" stroke="null" id="svg_26" fill="#9AD6E8" d="m42.264139,36.833999c-0.246252,0 -0.444324,-0.207761 -0.444324,-0.466059c0,-0.426753 -0.294432,-0.8142 -0.701283,-0.853506c-0.460384,-0.044921 -0.851176,0.33691 -0.851176,0.808585l0,0.044921c0,0.258298 -0.198072,0.466059 -0.444324,0.466059c-0.406851,0 -0.776229,0.308835 -0.813703,0.735588c-0.042826,0.482905 0.321198,0.892812 0.770876,0.892812l0.042826,0c0.246252,0 0.444324,0.207761 0.444324,0.466059c0,0.426753 0.294432,0.8142 0.701283,0.853506c0.460384,0.044921 0.851176,-0.33691 0.851176,-0.808585l0,-0.044921c0,-0.258298 0.198072,-0.466059 0.444324,-0.466059l0.042826,0c0.449678,0 0.813703,-0.409908 0.770876,-0.892812c-0.042826,-0.426753 -0.406851,-0.735588 -0.813703,-0.735588z"/>
   <path style="user-select: auto;" stroke="null" id="svg_27" fill="#9AD6E8" d="m6.525464,36.092796c-0.246252,0 -0.444324,-0.207761 -0.444324,-0.466059c0,-0.426753 -0.294432,-0.8142 -0.701283,-0.853506c-0.460384,-0.044921 -0.851176,0.33691 -0.851176,0.808585l0,0.044921c0,0.258298 -0.198072,0.466059 -0.444324,0.466059c-0.406851,0 -0.776229,0.308835 -0.813703,0.735588c-0.042826,0.482905 0.321198,0.892812 0.770876,0.892812l0.042826,0c0.246252,0 0.444324,0.207761 0.444324,0.466059c0,0.426753 0.294432,0.8142 0.701283,0.853506c0.460384,0.044921 0.851176,-0.33691 0.851176,-0.808585l0,-0.044921c0,-0.258298 0.198072,-0.466059 0.444324,-0.466059l0.042826,0c0.449678,0 0.813703,-0.409908 0.770876,-0.892812c-0.037473,-0.426753 -0.406851,-0.735588 -0.813703,-0.735588z"/>
   <path style="user-select: auto;" stroke="null" id="svg_28" fill="#9AD6E8" d="m45.090685,12.711217c-0.246252,0 -0.444324,-0.207761 -0.444324,-0.466059c0,-0.426753 -0.294432,-0.8142 -0.701283,-0.853506c-0.460384,-0.044921 -0.851176,0.33691 -0.851176,0.808585l0,0.044921c0,0.258298 -0.198072,0.466059 -0.444324,0.466059c-0.406851,0 -0.776229,0.308835 -0.813703,0.735588c-0.042826,0.482905 0.321198,0.892812 0.770876,0.892812l0.042826,0c0.246252,0 0.444324,0.207761 0.444324,0.466059c0,0.426753 0.294432,0.8142 0.701283,0.853506c0.460384,0.044921 0.851176,-0.33691 0.851176,-0.808585l0,-0.044921c0,-0.258298 0.198072,-0.466059 0.444324,-0.466059l0.042826,0c0.449678,0 0.813703,-0.409908 0.770876,-0.892812c-0.037473,-0.426753 -0.406851,-0.735588 -0.813703,-0.735588z"/>
  </g>
 </g>
</svg>